<svg xmlns="http://www.w3.org/2000/svg" xmlns:xlink="http://www.w3.org/1999/xlink" width="223" height="223" viewBox="0 0 223 223">
    <defs>
        <path id="a" d="M.001 0H223v223H.001z"/>
    </defs>
    <g fill="none" fill-rule="evenodd" opacity=".366">
        <g>
            <mask id="b" fill="#fff">
                <use xlink:href="#a"/>
            </mask>
            <path fill="#ECECED" d="M223.001 111.5c0 61.576-49.924 111.5-111.5 111.5C49.92 223 .001 173.077.001 111.5.001 49.92 49.92 0 111.501 0c61.576 0 111.5 49.92 111.5 111.5" mask="url(#b)"/>
        </g>
        <path fill="#FEFEFE" d="M72.29 68h91.386L175 154H64z"/>
        <path stroke="#020303" stroke-width="6" d="M103.045 82.269L103 60.339c-.023-10.657 8.679-19.316 19.435-19.339 10.756-.022 19.497 8.598 19.514 19.254L142 83"/>
        <path fill="#020303" d="M97 86.014A5.992 5.992 0 0 0 103.014 92 6 6 0 1 0 97 86.014M135 86.014A5.996 5.996 0 0 0 141.014 92 6 6 0 1 0 135 86.014"/>
        <path fill="#FEFEFE" d="M55.502 142.28c-30.883-17.568-30.838-36.126-30.417-40.188.205-11.614 9.579-21.013 21.093-21.041 4.484 0 8.78 1.438 12.328 4.011A20.917 20.917 0 0 1 70.818 81c11.675 0 21.16 9.59 21.182 21.373 0 .635-.055 1.23-.139 1.826-.094 6.101-3.226 22.502-30.333 38.07L58.518 144l-3.016-1.72z"/>
        <path fill="#231F20" d="M85 104.06c-.017-7.784-6.41-14.077-14.285-14.06a14.266 14.266 0 0 0-11.692 6.104 14.284 14.284 0 0 0-11.726-6.06c-7.869.017-14.24 6.342-14.223 14.126h-.006S30.368 120.118 59 136c23.569-13.203 25.799-26.361 25.86-30.56.045-.458.14-.906.14-1.38"/>
        <path stroke="#020303" stroke-linecap="round" stroke-linejoin="round" stroke-width="6" d="M74.148 80.163L75.598 65h91.38L178 155H67l1.17-12.199"/>
    </g>
</svg>
